# xmcd CD database file
#
# Track frame offsets:
#	150
#	12711
#	28248
#	42374
#	58365
#	70585
#	85313
#	100777
#	115826
#	126702
#	138605
#	152120
#	167436
#	185818
#	199946
#	210887
#	226393
#	241340
#	253750
#	267575
#
# Disc length: 3653 seconds
#
# Revision: 1
# Processed by: cddbd v1.4PL0 Copyright (c) Steve Scherf et al.
# Submitted via: jetAudio 5
#
DISCID=2f0e4314
DTITLE=Dolly Parton - Queen Of Country(Disc1)
DYEAR=1900
DGENRE=
TTITLE0=飘发 1
TTITLE1=飘发 2
TTITLE2=飘发 3
TTITLE3=飘发 4
TTITLE4=飘发 5
TTITLE5=飘发 6
TTITLE6=飘发 7
TTITLE7=飘发 8
TTITLE8=飘发 9
TTITLE9=飘发 10
TTITLE10=飘发 11
TTITLE11=飘发 12
TTITLE12=飘发 13
TTITLE13=飘发 14
TTITLE14=飘发 15
TTITLE15=飘发 16
TTITLE16=飘发 17
TTITLE17=飘发 18
TTITLE18=飘发 19
TTITLE19=飘发 20
EXTD=
EXTT0=
EXTT1=
EXTT2=
EXTT3=
EXTT4=
EXTT5=
EXTT6=
EXTT7=
EXTT8=
EXTT9=
EXTT10=
EXTT11=
EXTT12=
EXTT13=
EXTT14=
EXTT15=
EXTT16=
EXTT17=
EXTT18=
EXTT19=
PLAYORDER=
